# Blender v2.92.0 OBJ File: ''
# www.blender.org
mtllib butelka.mtl
o Cylinder_Cylinder.001
v 0.000000 0.951162 -0.500000
v 0.000000 1.140000 -0.159385
v 0.093684 1.140000 -0.128945
v 0.293893 0.951162 -0.404509
v 0.151584 1.140000 -0.049253
v 0.475528 0.951162 -0.154508
v 0.151584 1.140000 0.049253
v 0.475528 0.951162 0.154509
v 0.093684 1.140000 0.128945
v 0.293893 0.951162 0.404509
v 0.000000 1.140000 0.159385
v 0.000000 0.951162 0.500000
v -0.093684 1.140000 0.128945
v -0.293893 0.951162 0.404508
v -0.151584 1.140000 0.049253
v -0.475528 0.951162 0.154509
v -0.151584 1.140000 -0.049253
v -0.475528 0.951162 -0.154509
v -0.093684 1.140000 -0.128945
v -0.293892 0.951162 -0.404509
v 0.000000 -1.000000 -0.500000
v 0.293893 -1.000000 -0.404509
v 0.475528 -1.000000 -0.154508
v 0.475528 -1.000000 0.154509
v 0.293893 -1.000000 0.404509
v 0.000000 -1.000000 0.500000
v -0.293893 -1.000000 0.404508
v -0.475528 -1.000000 0.154509
v -0.475528 -1.000000 -0.154509
v -0.293892 -1.000000 -0.404509
v -0.151584 1.460000 0.049253
v -0.151584 1.460000 -0.049253
v -0.093684 1.460000 0.128945
v 0.000000 1.460000 0.159385
v 0.093684 1.460000 0.128945
v 0.151584 1.460000 0.049253
v 0.000000 1.460000 -0.159385
v 0.093684 1.460000 -0.128945
v 0.151584 1.460000 -0.049253
v -0.093684 1.460000 -0.128945
v 0.000000 1.660000 -0.159385
v 0.093684 1.660000 -0.128945
v -0.151584 1.660000 0.049253
v -0.151584 1.660000 -0.049253
v 0.093684 1.660000 0.128945
v 0.000000 1.660000 0.159385
v 0.151584 1.660000 -0.049253
v -0.093684 1.660000 -0.128945
v -0.093684 1.660000 0.128945
v 0.151584 1.660000 0.049253
vt 1.000000 1.000000
vt 0.900000 0.987791
vt 1.000000 0.987791
vt 0.800000 1.000000
vt 0.800000 0.987791
vt 0.700000 1.000000
vt 0.700000 0.987791
vt 0.600000 0.987791
vt 0.600000 1.000000
vt 0.500000 0.987791
vt 0.500000 1.000000
vt 0.400000 0.987791
vt 0.300000 1.000000
vt 0.300000 0.987791
vt 0.200000 0.987791
vt 0.200000 1.000000
vt 0.100000 0.987791
vt -0.000000 1.000000
vt -0.000000 0.987791
vt 0.978254 0.175836
vt 0.521746 0.175836
vt 0.608932 0.444164
vt -0.000000 0.500000
vt 0.100000 0.500000
vt 0.200000 0.500000
vt 0.300000 0.500000
vt 0.400000 0.500000
vt 0.500000 0.500000
vt 0.600000 0.500000
vt 0.700000 0.500000
vt 0.800000 0.500000
vt 0.900000 0.500000
vt 1.000000 0.500000
vt 0.200000 1.000000
vt 0.400000 1.000000
vt 0.300000 1.000000
vt 0.400000 1.000000
vt 0.500000 1.000000
vt 0.600000 1.000000
vt 0.900000 1.000000
vt 0.900000 1.000000
vt 0.700000 1.000000
vt 0.800000 1.000000
vt 0.100000 1.000000
vt -0.000000 1.000000
vt 0.100000 1.000000
vt 1.000000 1.000000
vt 0.900000 1.000000
vt 0.200000 1.000000
vt 0.500000 1.000000
vt 0.800000 1.000000
vt 0.100000 1.000000
vt 0.400000 1.000000
vt 0.700000 1.000000
vt -0.000000 1.000000
vt 0.300000 1.000000
vt 0.600000 1.000000
vt 0.750000 0.490000
vt 0.891068 0.444164
vt 0.978254 0.324164
vt 0.891068 0.055836
vt 0.750000 0.010000
vt 0.608932 0.055836
vt 0.521746 0.324164
vt 1.000000 1.000000
vn 0.1556 0.8639 -0.4790
vn 0.4074 0.8639 -0.2960
vn 0.5036 0.8639 0.0000
vn 0.4074 0.8639 0.2960
vn 0.1556 0.8639 0.4790
vn -0.1556 0.8639 0.4790
vn -0.4074 0.8639 0.2960
vn -0.5036 0.8639 0.0000
vn -0.4074 0.8639 -0.2960
vn -0.1556 0.8639 -0.4790
vn -0.0000 -1.0000 -0.0000
vn -0.3090 0.0000 -0.9511
vn -0.8090 0.0000 -0.5878
vn -1.0000 0.0000 0.0000
vn -0.8090 -0.0000 0.5878
vn -0.3090 -0.0000 0.9511
vn 0.3090 -0.0000 0.9511
vn 0.8090 -0.0000 0.5878
vn 1.0000 -0.0000 0.0000
vn 0.8090 0.0000 -0.5878
vn 0.3090 0.0000 -0.9511
usemtl Material.002
s 1
f 2/1/1 4/2/1 1/3/1
f 4/2/2 5/4/2 6/5/2
f 6/5/3 7/6/3 8/7/3
f 7/6/4 10/8/4 8/7/4
f 9/9/5 12/10/5 10/8/5
f 11/11/6 14/12/6 12/10/6
f 14/12/7 15/13/7 16/14/7
f 15/13/8 18/15/8 16/14/8
f 17/16/9 20/17/9 18/15/9
f 20/17/10 2/18/10 1/19/10
f 24/20/11 28/21/11 30/22/11
f 20/17/12 21/23/12 30/24/12
f 18/15/13 30/24/13 29/25/13
f 16/14/14 29/25/14 28/26/14
f 14/12/15 28/26/15 27/27/15
f 12/10/16 27/27/16 26/28/16
f 10/8/17 26/28/17 25/29/17
f 8/7/18 25/29/18 24/30/18
f 6/5/19 24/30/19 23/31/19
f 4/2/20 23/31/20 22/32/20
f 1/3/21 22/32/21 21/33/21
f 15/13/14 32/34/14 17/16/14
f 13/35/15 31/36/15 15/13/15
f 11/11/16 33/37/16 13/35/16
f 9/9/17 34/38/17 11/11/17
f 7/6/18 35/39/18 9/9/18
f 2/1/21 38/40/21 3/41/21
f 5/4/19 36/42/19 7/6/19
f 3/41/20 39/43/20 5/4/20
f 19/44/12 37/45/12 2/18/12
f 17/16/13 40/46/13 19/44/13
f 37/47/21 42/48/21 38/40/21
f 31/36/14 44/49/14 32/34/14
f 35/39/17 46/50/17 34/38/17
f 38/40/20 47/51/20 39/43/20
f 32/34/13 48/52/13 40/46/13
f 34/38/16 49/53/16 33/37/16
f 39/43/19 50/54/19 36/42/19
f 40/46/12 41/55/12 37/45/12
f 33/37/15 43/56/15 31/36/15
f 36/42/18 45/57/18 35/39/18
f 2/1/1 3/41/1 4/2/1
f 4/2/2 3/41/2 5/4/2
f 6/5/3 5/4/3 7/6/3
f 7/6/4 9/9/4 10/8/4
f 9/9/5 11/11/5 12/10/5
f 11/11/6 13/35/6 14/12/6
f 14/12/7 13/35/7 15/13/7
f 15/13/8 17/16/8 18/15/8
f 17/16/9 19/44/9 20/17/9
f 20/17/10 19/44/10 2/18/10
f 30/22/11 21/58/11 22/59/11
f 22/59/11 23/60/11 30/22/11
f 23/60/11 24/20/11 30/22/11
f 24/20/11 25/61/11 26/62/11
f 26/62/11 27/63/11 24/20/11
f 27/63/11 28/21/11 24/20/11
f 28/21/11 29/64/11 30/22/11
f 20/17/12 1/19/12 21/23/12
f 18/15/13 20/17/13 30/24/13
f 16/14/14 18/15/14 29/25/14
f 14/12/15 16/14/15 28/26/15
f 12/10/16 14/12/16 27/27/16
f 10/8/17 12/10/17 26/28/17
f 8/7/18 10/8/18 25/29/18
f 6/5/19 8/7/19 24/30/19
f 4/2/20 6/5/20 23/31/20
f 1/3/21 4/2/21 22/32/21
f 15/13/14 31/36/14 32/34/14
f 13/35/15 33/37/15 31/36/15
f 11/11/16 34/38/16 33/37/16
f 9/9/17 35/39/17 34/38/17
f 7/6/18 36/42/18 35/39/18
f 2/1/21 37/47/21 38/40/21
f 5/4/19 39/43/19 36/42/19
f 3/41/20 38/40/20 39/43/20
f 19/44/12 40/46/12 37/45/12
f 17/16/13 32/34/13 40/46/13
f 37/47/21 41/65/21 42/48/21
f 31/36/14 43/56/14 44/49/14
f 35/39/17 45/57/17 46/50/17
f 38/40/20 42/48/20 47/51/20
f 32/34/13 44/49/13 48/52/13
f 34/38/16 46/50/16 49/53/16
f 39/43/19 47/51/19 50/54/19
f 40/46/12 48/52/12 41/55/12
f 33/37/15 49/53/15 43/56/15
f 36/42/18 50/54/18 45/57/18
